<?xml version="1.0" standalone="no"?>
<!DOCTYPE svg PUBLIC "-//W3C//DTD SVG 20010904//EN"
 "http://www.w3.org/TR/2001/REC-SVG-20010904/DTD/svg10.dtd">
<svg version="1.0" xmlns="http://www.w3.org/2000/svg"
 width="1088.000000pt" height="1088.000000pt" viewBox="0 0 1088.000000 1088.000000"
 preserveAspectRatio="xMidYMid meet">
<metadata>
Created by potrace 1.11, written by Peter Selinger 2001-2013
</metadata>
<g transform="translate(0.000000,1088.000000) scale(0.100000,-0.100000)"
fill="#000000" stroke="none">
<path d="M9745 10266 c-254 -70 -582 -159 -617 -170 -21 -5 -38 -13 -38 -17 0
-4 30 -25 68 -46 88 -52 197 -115 247 -143 22 -12 123 -70 225 -128 102 -57
204 -116 228 -129 23 -13 42 -28 42 -32 0 -5 -21 -14 -47 -21 -66 -17 -133
-36 -233 -64 -47 -14 -130 -37 -185 -51 -55 -15 -140 -38 -190 -51 -49 -14
-113 -31 -141 -38 -27 -7 -55 -16 -61 -19 -6 -4 -85 35 -175 87 -89 51 -210
120 -268 153 -58 33 -163 93 -234 134 -71 41 -143 82 -160 92 -17 9 -38 15
-46 11 -18 -7 -618 -172 -741 -204 -86 -22 -118 -35 -109 -43 3 -2 86 -51 185
-107 99 -57 243 -139 320 -183 77 -45 177 -101 222 -126 46 -25 83 -50 83 -56
0 -5 -57 -25 -128 -43 -70 -19 -161 -44 -202 -57 -41 -12 -122 -34 -180 -49
-58 -16 -145 -39 -195 -53 -49 -14 -107 -30 -128 -35 -41 -9 -30 -13 -192 77
-44 24 -360 204 -470 268 -38 22 -105 60 -147 84 l-77 44 -93 -26 c-51 -15
-110 -31 -131 -36 -21 -5 -86 -23 -145 -40 -114 -33 -125 -36 -354 -95 -82
-21 -148 -42 -148 -46 0 -6 58 -42 170 -106 70 -39 258 -147 395 -225 77 -45
164 -94 193 -110 50 -28 69 -57 36 -57 -15 0 -175 -41 -294 -75 -78 -22 -185
-52 -315 -87 -58 -15 -122 -33 -188 -53 l-57 -17 -48 30 c-26 16 -105 62 -177
102 -142 79 -442 250 -546 311 -36 22 -72 39 -80 39 -13 0 -228 -58 -614 -165
-88 -24 -181 -50 -207 -57 -27 -7 -48 -16 -48 -20 0 -4 24 -20 52 -34 29 -15
69 -37 88 -49 19 -12 55 -33 80 -47 25 -14 131 -73 235 -133 413 -234 386
-213 303 -237 -109 -32 -169 -48 -283 -78 -60 -15 -157 -42 -215 -58 -58 -17
-153 -42 -212 -57 l-107 -27 -88 48 c-48 26 -105 58 -125 71 -21 13 -62 36
-90 52 -29 16 -161 90 -293 166 -132 75 -246 137 -255 137 -14 1 -189 -44
-240 -61 -14 -5 -52 -16 -85 -25 -311 -84 -540 -147 -543 -151 -6 -5 30 -26
543 -317 260 -148 268 -153 272 -163 1 -6 -34 -20 -80 -31 -45 -12 -113 -31
-152 -42 -38 -11 -104 -30 -145 -41 -41 -11 -100 -27 -130 -36 -65 -19 -268
-73 -324 -86 -43 -11 -48 -8 -466 231 -36 20 -112 64 -170 97 -58 33 -138 79
-178 102 l-73 42 -71 -20 c-63 -18 -73 -19 -99 -6 -20 11 -62 15 -142 15 -106
0 -115 -2 -135 -23 l-22 -23 0 -713 0 -712 25 -24 c13 -14 35 -25 49 -25 l26
0 2 -2812 c3 -2730 4 -2814 22 -2851 28 -56 89 -104 150 -117 35 -7 1437 -9
4601 -8 l4550 3 40 22 c46 24 75 54 101 103 18 34 19 124 22 2881 l2 2846 43
9 42 9 3 334 c2 261 -1 336 -10 343 -7 4 -49 8 -93 8 l-79 0 -345 -345 -344
-345 -453 0 c-250 0 -454 3 -454 8 1 4 149 155 330 336 181 181 327 333 324
338 -3 5 -206 8 -452 8 l-447 -1 -345 -344 -345 -345 -453 0 c-248 0 -452 3
-452 8 0 4 148 155 329 336 182 182 328 333 325 337 -2 4 -205 7 -451 7 l-448
0 -345 -344 -346 -344 -459 2 -459 3 337 336 c185 185 335 338 333 340 -3 2
-210 3 -460 3 l-457 -2 -341 -341 -341 -341 -453 0 c-250 0 -454 3 -454 8 0 4
148 155 330 337 181 181 328 330 326 332 -1 2 -205 5 -453 7 l-450 4 -334
-334 c-184 -184 -337 -334 -341 -334 -5 0 -8 52 -8 115 0 81 -5 127 -15 152
-9 22 -74 96 -157 180 l-142 143 33 34 c36 37 33 44 -19 41 -19 -1 -46 4 -60
13 -36 22 -131 125 -122 133 4 3 77 25 162 48 85 23 202 57 260 75 94 30 132
41 260 76 19 5 96 26 170 45 165 43 181 47 300 81 52 15 113 30 135 34 22 4
92 22 155 39 63 18 189 52 280 76 137 37 309 86 475 135 27 8 156 43 470 130
61 16 164 44 230 61 66 17 170 44 230 60 61 16 126 33 145 39 19 5 58 15 85
24 28 8 113 31 190 51 77 20 192 52 255 71 63 19 162 47 220 63 58 16 146 41
195 55 50 14 142 39 205 56 63 18 165 45 225 62 61 16 132 34 160 39 27 5 61
13 75 18 14 6 70 22 125 37 55 14 138 36 185 49 47 13 146 40 220 60 74 20
185 51 245 70 61 19 128 39 150 44 22 5 123 33 225 61 291 80 432 118 575 154
55 14 143 37 195 52 52 14 142 38 200 54 58 15 132 36 165 45 62 18 83 24 175
49 30 8 93 27 140 41 47 14 126 37 175 50 50 13 173 47 275 74 102 28 226 62
275 75 50 14 123 33 164 43 56 13 83 26 114 54 l41 36 -58 209 c-31 115 -71
260 -88 322 -27 98 -34 112 -52 111 -12 0 -75 -15 -141 -33z m-8845 -2546 c28
-28 25 -64 -6 -89 -15 -12 -31 -21 -37 -21 -22 0 -57 44 -57 72 0 23 7 32 33
43 42 19 44 18 67 -5z m10 -1123 c13 -24 13 -30 0 -53 -22 -39 -53 -47 -84
-23 -43 34 -33 89 19 102 34 8 49 3 65 -26z m870 13 c24 -24 25 -48 5 -77 -21
-30 -51 -34 -80 -11 -34 27 -32 77 5 95 34 17 47 16 70 -7z m400 -910 c8 -5
28 -22 45 -39 25 -28 30 -41 33 -100 3 -50 0 -78 -13 -105 -50 -106 -223 -108
-280 -3 -13 26 -17 49 -13 105 3 67 6 75 39 108 50 49 131 64 189 34z m1017
-6 c13 -8 30 -26 40 -40 14 -22 14 -27 2 -35 -24 -15 -56 -10 -70 12 -17 25
-78 30 -103 10 -42 -35 -42 -146 0 -188 34 -34 67 -30 102 12 26 32 32 35 55
26 31 -12 32 -13 13 -50 -47 -90 -190 -87 -247 5 -26 42 -29 136 -6 180 43 83
141 113 214 68z m747 -2 c46 -27 69 -66 74 -125 6 -71 -11 -119 -53 -156 -71
-62 -193 -43 -239 38 -37 64 -22 189 28 230 49 41 132 46 190 13z m-2398 -15
c35 -41 33 -104 -3 -140 -23 -21 -39 -26 -88 -29 l-60 -3 -3 -62 -3 -63 -34 0
-35 0 0 166 0 166 101 -4 c96 -3 102 -4 125 -31z m298 23 c33 -12 59 -63 51
-101 -4 -16 -20 -39 -37 -52 l-30 -24 46 -65 c25 -36 46 -69 46 -72 0 -3 -17
-6 -39 -6 -37 0 -41 3 -80 64 -23 35 -49 67 -57 70 -38 14 -43 7 -46 -61 l-3
-68 -32 -3 -33 -3 0 165 0 166 94 0 c52 0 106 -4 120 -10z m674 -6 c46 -27 64
-61 70 -130 6 -79 -16 -135 -64 -165 -27 -17 -47 -19 -119 -17 l-86 3 -1 145
c0 80 0 153 1 163 1 15 12 17 87 17 61 0 94 -5 112 -16z m193 -110 c4 -110 6
-127 23 -140 26 -19 65 -18 88 3 16 14 18 33 18 140 l0 123 35 0 35 0 0 -119
c0 -131 -10 -172 -46 -196 -37 -24 -104 -30 -146 -12 -59 25 -70 52 -76 182
-2 62 -2 121 1 129 4 10 18 16 36 16 l29 0 3 -126z m834 96 c0 -23 -4 -25 -47
-28 l-47 -3 -3 -132 -3 -132 -30 0 -30 0 -3 133 -3 132 -44 0 c-43 0 -45 1
-45 30 l0 31 128 -3 127 -3 0 -25z m105 -135 l0 -165 -30 0 -30 0 0 165 0 165
30 0 30 0 0 -165z m546 70 c31 -53 61 -98 66 -101 4 -3 8 40 8 95 l0 101 30 0
30 0 0 -165 0 -165 -33 0 c-30 0 -36 6 -79 78 -26 43 -56 90 -67 103 l-20 24
-1 -103 0 -103 -27 3 -28 3 -3 163 -2 162 34 0 c32 0 37 -5 92 -95z m5364
-215 l0 -30 -2482 2 -2483 3 -3 28 -3 27 2485 0 2486 0 0 -30z m-6940 -625
c15 -8 38 -27 50 -42 20 -26 20 -28 4 -40 -26 -19 -44 -16 -66 12 -39 50 -120
19 -131 -50 -14 -85 18 -145 78 -145 26 0 39 7 59 32 22 29 27 31 50 20 33
-15 33 -21 -7 -67 -28 -32 -40 -38 -83 -42 -57 -6 -94 9 -134 52 -33 36 -41
151 -13 205 34 66 129 98 193 65z m638 -11 c53 -31 72 -71 72 -152 0 -70 -26
-117 -80 -144 -72 -37 -164 -14 -207 51 -18 26 -23 48 -23 95 0 78 23 124 75
153 54 30 107 29 163 -3z m-1708 -22 c30 -29 39 -47 44 -88 10 -68 -8 -130
-46 -166 -29 -27 -34 -28 -129 -28 l-99 0 0 160 0 160 96 0 96 0 38 -38z m170
-122 c0 -99 -4 -160 -10 -161 -59 -7 -55 -19 -58 159 l-2 162 35 0 35 0 0
-160z m297 136 c22 -19 28 -33 28 -64 0 -42 -26 -82 -52 -82 -14 0 -18 -26 -5
-32 10 -4 70 -91 74 -108 3 -13 -36 -21 -59 -13 -7 3 -27 27 -44 55 -42 66
-56 78 -85 78 -23 0 -24 -3 -24 -64 0 -68 -6 -76 -47 -68 -23 4 -23 6 -23 163
l0 159 104 0 c96 0 107 -2 133 -24z m333 9 c0 -8 0 -18 0 -22 0 -5 -37 -10
-82 -13 l-83 -5 0 -35 0 -35 75 -1 c73 -1 75 -2 78 -28 l3 -26 -80 0 -81 0 0
-45 0 -45 91 0 90 0 -3 -26 -3 -27 -115 1 c-63 1 -118 2 -122 2 -5 0 -8 72 -8
160 l0 160 120 0 c100 0 120 -2 120 -15z m636 -7 c-2 -19 -11 -24 -47 -28
l-44 -5 -5 -135 -5 -135 -25 1 c-14 1 -28 2 -32 3 -4 0 -9 61 -10 134 l-3 132
-42 3 c-40 3 -61 22 -47 43 3 5 63 9 135 9 128 0 129 0 125 -22z m645 -7 c22
-26 25 -87 6 -112 -7 -9 -23 -21 -35 -28 -24 -13 -24 -13 -4 -34 35 -40 74
-106 67 -116 -3 -6 -18 -10 -32 -9 -20 2 -38 19 -71 63 -50 68 -58 75 -89 75
-21 0 -23 -4 -23 -64 0 -57 -2 -64 -22 -69 -12 -3 -25 -4 -30 -1 -4 3 -8 77
-8 165 l0 161 111 -4 c102 -3 112 -5 130 -27z m5929 -271 l0 -30 -2812 2
c-2744 3 -2813 3 -2816 22 -2 10 2 22 10 27 7 5 1274 9 2816 9 l2802 0 0 -30z
m-8010 -639 c19 -10 39 -30 44 -44 11 -31 10 -33 -25 -42 -20 -5 -28 -1 -38
19 -28 52 -102 40 -128 -21 -17 -41 -12 -108 9 -143 26 -42 100 -38 120 6 15
31 61 31 66 -1 4 -27 -53 -85 -87 -87 -56 -4 -96 4 -124 24 -33 24 -66 89 -67
132 0 70 42 145 95 167 35 14 99 10 135 -10z m278 7 c14 -17 122 -286 122
-304 0 -9 -11 -14 -29 -14 -25 0 -32 6 -42 35 -15 40 -33 48 -100 43 -40 -3
-46 -7 -62 -40 -15 -31 -24 -38 -48 -38 -16 0 -29 3 -29 8 0 7 75 205 108 285
12 30 20 37 42 37 15 0 32 -6 38 -12z m293 -93 c14 -55 29 -100 34 -100 4 0
18 39 30 87 33 126 29 120 77 116 l43 -3 3 -162 2 -163 -30 0 -30 0 0 105 c0
63 -4 105 -10 105 -5 0 -10 -9 -10 -20 0 -10 -10 -58 -22 -105 -21 -85 -21
-85 -53 -85 l-33 0 -22 98 c-33 145 -35 146 -40 22 l-5 -115 -27 -3 -28 -3 0
166 0 166 48 -3 47 -3 26 -100z m497 73 l3 -27 -88 -3 -88 -3 0 -30 0 -30 80
-5 c77 -5 80 -6 80 -30 0 -24 -2 -25 -82 -28 l-83 -3 0 -32 c0 -51 9 -56 100
-59 77 -3 85 -5 85 -23 0 -19 -8 -20 -122 -23 l-123 -3 0 159 c0 87 3 162 7
166 4 3 57 5 117 4 l111 -3 3 -27z m309 -2 c41 -49 22 -127 -38 -148 -11 -4
-10 -10 7 -29 22 -25 74 -105 74 -114 0 -3 -15 -5 -34 -5 -29 0 -38 7 -76 61
-40 57 -80 86 -101 73 -5 -3 -9 -34 -9 -70 l0 -64 -30 0 -30 0 0 166 0 167
107 -5 c101 -5 108 -6 130 -32z m251 22 c6 -7 24 -49 42 -93 17 -44 37 -93 45
-110 20 -45 45 -107 45 -112 0 -2 -17 -3 -37 -1 -33 3 -39 7 -47 36 -10 37
-30 45 -97 40 -40 -3 -46 -7 -62 -40 -15 -31 -24 -38 -48 -38 -36 0 -38 -8 33
175 56 146 62 155 93 155 12 0 27 -6 33 -12z m6382 -298 l0 -30 -2995 0 -2995
0 0 30 0 30 2995 0 2995 0 0 -30z m-7404 -635 c65 -27 94 -145 58 -235 -23
-56 -57 -72 -163 -74 l-86 -1 -3 163 -2 162 80 0 c48 0 95 -6 116 -15z m304
-4 c22 -41 117 -301 112 -306 -3 -3 -16 -5 -29 -5 -17 0 -28 10 -40 38 -18 37
-19 37 -84 40 l-66 3 -15 -39 c-13 -32 -20 -39 -42 -39 -14 0 -29 3 -31 7 -3
5 6 35 19 67 13 32 41 102 61 156 36 96 37 97 70 97 24 0 38 -6 45 -19z m390
-5 c0 -22 -5 -25 -42 -28 l-43 -3 -3 -132 c-2 -118 -5 -132 -21 -138 -45 -14
-50 -1 -53 138 l-3 132 -42 3 c-38 3 -43 6 -43 28 l0 24 125 0 125 0 0 -24z
m290 -1 c0 -24 -2 -24 -87 -27 l-88 -3 0 -35 0 -35 83 -3 c79 -3 82 -4 82 -27
0 -23 -3 -24 -82 -27 l-83 -3 0 -45 0 -45 90 -5 c74 -4 90 -8 93 -22 5 -24
-25 -29 -143 -26 l-100 3 -3 150 c-1 82 0 155 2 162 4 10 36 13 121 13 l115 0
0 -25z m1521 -4 c38 -39 38 -61 -1 -61 -16 0 -33 6 -37 14 -16 27 -51 38 -81
24 -52 -25 -30 -51 68 -80 58 -16 90 -51 90 -95 0 -45 -14 -69 -50 -88 -68
-35 -178 -7 -200 51 -15 38 -13 44 18 44 20 0 35 -9 50 -30 27 -36 68 -40 103
-11 35 28 16 52 -60 76 -106 34 -140 98 -82 156 26 26 36 29 91 29 55 0 65 -3
91 -29z m319 12 c36 -21 57 -62 38 -74 -18 -12 -58 -11 -58 0 0 19 -32 41 -61
41 -18 0 -39 -9 -54 -25 -22 -21 -25 -33 -25 -90 0 -57 3 -69 25 -90 32 -33
70 -32 100 1 14 15 25 31 25 36 0 10 39 1 53 -12 16 -14 -23 -71 -58 -86 -111
-46 -215 26 -215 149 0 61 19 106 59 140 27 22 42 27 88 27 33 0 66 -7 83 -17z
m350 -8 c0 -24 -2 -24 -87 -27 l-88 -3 0 -35 0 -35 83 -3 c79 -3 82 -4 82 -27
0 -23 -3 -24 -82 -27 l-83 -3 -3 -33 c-5 -54 10 -63 102 -61 79 2 81 2 81 -22
l0 -24 -120 0 -120 0 -3 163 -2 162 120 0 120 0 0 -25z m163 -27 c18 -29 46
-75 62 -101 15 -26 30 -45 34 -42 3 4 6 48 6 98 l0 92 28 3 27 3 0 -165 c0
-166 0 -166 -22 -166 -34 0 -41 7 -98 103 -29 48 -56 90 -61 93 -5 3 -9 -37
-9 -90 0 -86 -2 -95 -20 -101 -11 -3 -24 -3 -30 0 -6 4 -10 69 -10 166 l0 159
29 0 c24 0 35 -9 64 -52z m475 25 c3 -21 0 -22 -85 -25 l-88 -3 0 -35 0 -35
80 -5 c72 -4 80 -7 80 -25 0 -18 -8 -21 -80 -25 l-80 -5 0 -45 0 -45 88 -3
c85 -3 88 -4 85 -25 -3 -21 -7 -22 -118 -22 l-115 0 -3 163 -2 163 117 -3
c113 -3 118 -4 121 -25z m1777 2 c0 -16 -8 -21 -45 -25 l-45 -5 -5 -135 -5
-135 -27 -3 -27 -3 -3 138 -3 138 -47 3 c-44 3 -48 5 -48 28 l0 25 128 -3
c119 -3 127 -4 127 -23z m224 -12 c8 -21 21 -56 31 -78 53 -120 80 -199 71
-208 -19 -19 -59 2 -71 38 l-12 35 -64 0 -64 0 -17 -37 c-17 -36 -25 -40 -73
-34 -5 1 -4 15 5 34 8 17 35 86 61 152 25 66 48 123 51 128 2 4 19 7 37 7 28
0 34 -5 45 -37z m219 -30 c2 -35 7 -63 12 -63 4 0 34 29 65 65 52 59 61 65 96
65 35 0 52 -12 32 -22 -5 -2 -30 -26 -57 -55 l-48 -51 61 -93 c33 -51 59 -95
57 -96 -7 -8 -48 -12 -62 -6 -8 3 -33 36 -55 74 -22 38 -43 69 -46 69 -4 0
-17 -10 -30 -22 -18 -17 -23 -32 -23 -69 0 -38 -4 -49 -19 -54 -44 -14 -46 -4
-43 166 l3 160 27 -3 c26 -3 27 -6 30 -65z m505 54 c10 -27 -10 -36 -88 -39
l-80 -3 0 -35 0 -35 78 -3 c74 -3 77 -4 77 -27 0 -23 -3 -24 -77 -27 l-78 -3
0 -45 0 -45 88 -3 c84 -3 88 -4 85 -24 -3 -21 -8 -22 -118 -22 l-115 -1 -3
163 -2 162 114 0 c86 0 115 -3 119 -13z m867 -467 l0 -30 -1465 0 -1465 0 -2
-737 -3 -738 -27 -3 -28 -3 0 740 0 741 -1362 -2 -1363 -3 -3 -737 -2 -738
-25 0 -25 0 -2 738 -3 737 -1232 3 -1233 2 0 23 c0 13 3 27 7 30 3 4 1857 7
4120 7 l4113 0 0 -30z"/>
<path d="M2084 5653 c-92 -17 -91 -185 0 -218 41 -14 93 18 107 66 27 88 -29
167 -107 152z"/>
<path d="M3833 5648 c-80 -21 -85 -171 -8 -206 38 -18 61 -15 91 11 23 20 28
34 32 83 3 49 0 64 -17 85 -24 31 -53 39 -98 27z"/>
<path d="M1390 5605 l0 -45 45 0 c36 0 48 5 60 24 14 20 14 28 3 45 -10 17
-23 21 -60 21 l-48 0 0 -45z"/>
<path d="M1700 5610 l0 -40 55 0 c44 0 56 4 65 20 8 14 8 26 0 40 -9 16 -21
20 -65 20 l-55 0 0 -40z"/>
<path d="M2384 5637 c-3 -8 -4 -54 -2 -103 l3 -89 52 -3 c46 -3 54 0 69 23 23
36 16 151 -11 171 -24 18 -104 18 -111 1z"/>
<path d="M3121 4713 c-29 -24 -43 -87 -30 -136 25 -94 143 -92 169 3 14 50 -2
113 -33 135 -29 20 -80 19 -106 -2z"/>
<path d="M1397 4723 c-4 -3 -7 -53 -7 -110 l0 -103 44 0 c62 0 87 23 93 86 7
70 -15 119 -57 128 -42 8 -65 8 -73 -1z"/>
<path d="M1857 4723 c-13 -12 -7 -74 6 -79 8 -3 36 -1 63 3 41 7 50 12 52 33
3 14 -3 29 -14 37 -18 13 -96 18 -107 6z"/>
<path d="M3454 4716 c-3 -8 -4 -27 -2 -43 3 -27 4 -28 58 -26 38 2 59 8 67 20
17 22 16 28 -3 47 -20 21 -112 22 -120 2z"/>
<path d="M1770 3714 c-11 -26 -20 -48 -20 -50 0 -2 21 -4 46 -4 33 0 44 4 40
13 -2 6 -10 29 -17 50 -7 20 -16 37 -20 37 -4 0 -17 -21 -29 -46z"/>
<path d="M2750 3760 l0 -40 60 0 c49 0 61 3 70 20 8 14 8 26 0 40 -9 17 -21
20 -70 20 l-60 0 0 -40z"/>
<path d="M3135 3751 c-3 -6 -12 -28 -20 -50 l-14 -41 46 0 c39 0 44 2 38 18
-5 9 -13 32 -19 50 -11 33 -20 39 -31 23z"/>
<path d="M2025 2868 c-3 -8 -4 -59 -3 -114 l3 -99 50 2 c57 2 79 21 89 78 8
39 -7 107 -28 124 -7 6 -34 14 -59 17 -36 5 -48 3 -52 -8z"/>
<path d="M2399 2813 c-6 -16 -13 -40 -16 -55 -5 -27 -4 -28 36 -28 47 0 47 1
15 78 -16 39 -21 40 -35 5z"/>
<path d="M7896 2797 c-23 -62 -21 -67 24 -67 29 0 40 4 40 15 0 21 -31 95 -40
95 -4 0 -15 -19 -24 -43z"/>
</g>
</svg>
